{"title":"Match Point-720p MP4 AAC x264 BRRip 2005-CC","uid":7267086,"size":2208013069,"categoryP":"video","categoryS":"hd___movies","magnet":"?xt=urn:btih:073a1a6c8be477aa690cec49b373064cc519ced1&amp;dn=Match+Point-720p+MP4+AAC+x264+BRRip+2005-CC&amp;tr=udp%3A%2F%2Ftracker.openbittorrent.com%3A80&amp;tr=udp%3A%2F%2Fopen.demonii.com%3A1337&amp;tr=udp%3A%2F%2Ftracker.coppersurfer.tk%3A6969&amp;tr=udp%3A%2F%2Fexodus.desync.com%3A6969","seeders":6,"leechers":1,"uploader":"Caveman44","files":-1,"time":1336932601,"description":"Source: Match.Point.2005.720p.BluRay.x264-SiNNERS\n\nSubs: Brazilian, Bulgarian, Danish, Dutch, English, French, Greek, Hebrew, Indonesian, Italian, Persian, Portuguese, Romanian, Servian, Slovenian, Spanish, Swedish and Vietnamese.\n\nSample and Screens included.\n\nGeneral\nComplete name                    : Match Point-720p MP4 AAC x264 BRRip 2005-CC.mp4\nFormat                           : MPEG-4\nFormat profile                   : Base Media\nCodec ID                         : isom\nFile size                        : 2.03 GiB\nDuration                         : 2h 3mn\nOverall bit rate                 : 2 342 Kbps\nEncoded date                     : UTC 2012-05-12 09:02:14\n\nVideo\nID                               : 1\nFormat                           : AVC\nFormat/Info                      : Advanced Video Codec\nFormat profile                   : &lt;a class=&quot;__cf_email__&quot; href=&quot;/cdn-cgi/l/email-protection&quot; data-cfemail=&quot;763e1f111e363a455847&quot;&gt;[email&amp;#160;protected]&lt;/a&gt;&lt;script cf-hash='f9e31' type=&quot;text/javascript&quot;&gt;\n/* &lt;![CDATA[ */!function(){try{var t=&quot;currentScript&quot;in document?document.currentScript:function(){for(var t=document.getElementsByTagName(&quot;script&quot;),e=t.length;e--;)if(t[e].getAttribute(&quot;cf-hash&quot;))return t[e]}();if(t&amp;&amp;t.previousSibling){var e,r,n,i,c=t.previousSibling,a=c.getAttribute(&quot;data-cfemail&quot;);if(a){for(e=&quot;&quot;,r=parseInt(a.substr(0,2),16),n=2;a.length-n;n+=2)i=parseInt(a.substr(n,2),16)^r,e+=String.fromCharCode(i);e=document.createTextNode(e),c.parentNode.replaceChild(e,c)}}}catch(u){}}();/* ]]&gt; */&lt;/script&gt;\nFormat settings, CABAC           : Yes\nFormat settings, ReFrames        : 5 frames\nCodec ID                         : avc1\nCodec ID/Info                    : Advanced Video Coding\nDuration                         : 2h 3mn\nBit rate mode                    : Variable\nBit rate                         : 2 160 Kbps\nNominal bit rate                 : 2 183 Kbps\nMaximum bit rate                 : 26.7 Mbps\nWidth                            : 1 280 pixels\nHeight                           : 688 pixels\nDisplay aspect ratio             : 1.860\nFrame rate mode                  : Variable\nFrame rate                       : 23.976 fps\nMinimum frame rate               : 19.048 fps\nMaximum frame rate               : 24.390 fps\nResolution                       : 24 bits\nColorimetry                      : 4:2:0\nScan type                        : Progressive\nBits/(Pixel*Frame)               : 0.102\nStream size                      : 1.87 GiB (92%)\nWriting library                  : x264 core 112\n\nAudio\nID                               : 2\nFormat                           : AAC\nFormat/Info                      : Advanced Audio Codec\nFormat version                   : Version 4\nFormat profile                   : LC\nFormat settings, SBR             : No\nCodec ID                         : 40\nDuration                         : 2h 3mn\nBit rate mode                    : Variable\nBit rate                         : 177 Kbps\nMaximum bit rate                 : 222 Kbps\nChannel(s)                       : 2 channels\nChannel positions                : L R\nSampling rate                    : 48.0 KHz\nResolution                       : 16 bits\nStream size                      : 157 MiB (8%)\nLanguage                         : English\n\nEnjoy...\n\nRequested by DreamExtractor.","torrent":{"xt":"urn:btih:073a1a6c8be477aa690cec49b373064cc519ced1","amp;dn":"Match+Point-720p+MP4+AAC+x264+BRRip+2005-CC","amp;tr":["udp%3A%2F%2Ftracker.openbittorrent.com%3A80","udp%3A%2F%2Fopen.demonii.com%3A1337","udp%3A%2F%2Ftracker.coppersurfer.tk%3A6969","udp%3A%2F%2Fexodus.desync.com%3A6969"],"infoHash":"073a1a6c8be477aa690cec49b373064cc519ced1","infoHashBuffer":{"type":"Buffer","data":[7,58,26,108,139,228,119,170,105,12,236,73,179,115,6,76,197,25,206,209]},"announce":[],"urlList":[]}}